# xmcd
#
# Track frame offsets:
#	150
#	11593
#	26808
#	38801
#	55115
#	67361
#	78103
#	97734
#	111987
#	124016
#	146737
#	158751
#	172937
#	191317
#	205837
#	218832
#	232414
#	246475
#	257063
#	272822
#	286362
#	299007
#	311953
#
# Disc length: 4573 seconds
#
# Revision: 1
# Processed by: cddbd v1.5.2PL0 Copyright (c) Steve Scherf et al.
# Submitted via: audiograbber 1.83.01
#
DISCID=6111db17
DTITLE=Various Artist - 100 Years Of The Blues  CD2
DYEAR=2011
DGENRE=Blues
TTITLE0=Son House - John The Revelator
TTITLE1=The Rolling Stones - Ventilator Blues
TTITLE2=John Lee Hooker - Boom Boom
TTITLE3=BB King - Sitting On Top Of The World
TTITLE4=Otis Rush - Double Trouble
TTITLE5=Stevie Ray Vaughan - Love Struck Baby
TTITLE6=The Robert Cray Band - New Blood
TTITLE7=Lowell Fulsom - Reconsider Baby
TTITLE8=Eddie Boyd - Five Long Years
TTITLE9=Dr John - I Know What I've Got
TTITLE10=Bobby Bland - Don't Want No Woman
TTITLE11=Billie Holiday - Billies's Blues
TTITLE12=Tim Hardin - Nobody Knows When You're Down And Out
TTITLE13=Bonnie Raitt - Love Me Like A Man
TTITLE14=Eric Clapton - Give Me Strength
TTITLE15=Big Bill Broonzy - Key To The Highway
TTITLE16=Lead Belly - The Midnight Special
TTITLE17=Sonny Boy Williamson II - Fattening Frogs For Snakes
TTITLE18=Jonny Lang - Matchbox
TTITLE19=Elmore James - Dust My Broom
TTITLE20=Jimmy Rogers - Walking By Myself
TTITLE21=Canned Heat - Going Up Country
TTITLE22=Chantel McGregor - Help Me
EXTD=
EXTT0=
EXTT1=
EXTT2=
EXTT3=
EXTT4=
EXTT5=
EXTT6=
EXTT7=
EXTT8=
EXTT9=
EXTT10=
EXTT11=
EXTT12=
EXTT13=
EXTT14=
EXTT15=
EXTT16=
EXTT17=
EXTT18=
EXTT19=
EXTT20=
EXTT21=
EXTT22=
PLAYORDER=
